<mxfile host="Electron" agent="Mozilla/5.0 (Windows NT 10.0; Win64; x64) AppleWebKit/537.36 (KHTML, like Gecko) draw.io/26.0.9 Chrome/128.0.6613.186 Electron/32.2.5 Safari/537.36" version="26.0.9">
  <diagram name="Page-1" id="BgFHaXArKNQ9q3IpfeLG">
    <mxGraphModel dx="1509" dy="880" grid="1" gridSize="10" guides="1" tooltips="1" connect="1" arrows="1" fold="1" page="1" pageScale="1" pageWidth="1169" pageHeight="1654" math="0" shadow="0">
      <root>
        <mxCell id="0" />
        <mxCell id="1" parent="0" />
        <mxCell id="0XVlXFKe1AxHUArc0qjT-21" value="&lt;div&gt;&lt;font style=&quot;font-size: 18px;&quot;&gt;&lt;b&gt;Wireless&lt;/b&gt;&lt;/font&gt;&lt;/div&gt;" style="rounded=0;whiteSpace=wrap;html=1;fillColor=#dae8fc;strokeColor=#6c8ebf;strokeWidth=2;align=center;verticalAlign=top;fontSize=9;" parent="1" vertex="1">
          <mxGeometry x="326.45" y="1030" width="270" height="186" as="geometry" />
        </mxCell>
        <mxCell id="0XVlXFKe1AxHUArc0qjT-23" value="&lt;div&gt;&lt;span style=&quot;font-size: 18px;&quot;&gt;&lt;b&gt;Base configuration Mikrotik OS script (based on vendor default)&lt;/b&gt;&lt;/span&gt;&lt;/div&gt;" style="rounded=0;whiteSpace=wrap;html=1;fillColor=#d5e8d4;strokeColor=#82b366;strokeWidth=2;align=center;verticalAlign=top;fontSize=9;" parent="1" vertex="1">
          <mxGeometry x="20" y="1250" width="1130" height="260" as="geometry" />
        </mxCell>
        <mxCell id="0XVlXFKe1AxHUArc0qjT-8" value="&lt;font color=&quot;#ffffff&quot;&gt;&lt;b&gt;Project: Automatic Gateway Configuration&lt;/b&gt;&lt;/font&gt;&lt;br&gt;&lt;font color=&quot;#050505&quot;&gt;&lt;b&gt;Mikrotik Modular Configuration Scripts&lt;/b&gt;&lt;/font&gt;&lt;br&gt;&lt;div&gt;&lt;font color=&quot;#050505&quot;&gt;&lt;div&gt;An effort to automate Mikrotik Router OS Configuration&lt;/div&gt;&lt;/font&gt;&lt;font color=&quot;#ffffff&quot;&gt;Attila Macskasy, Peter Karpati, Veronika Nemeth&lt;/font&gt;&lt;br&gt;&lt;font color=&quot;#ffffff&quot;&gt;March 3, 2025&lt;/font&gt;&lt;/div&gt;" style="text;html=1;align=center;verticalAlign=middle;resizable=0;points=[];autosize=1;strokeColor=none;fillColor=light-dark(#1d9dc2, #1d293b);fontSize=15;fontFamily=Helvetica;" parent="1" vertex="1">
          <mxGeometry x="20" y="1530" width="390" height="100" as="geometry" />
        </mxCell>
        <mxCell id="PvDVrDbWtF-_EP92R9GO-1" value="&lt;span style=&quot;font-size: 18px;&quot;&gt;&lt;b&gt;set system identity&lt;/b&gt;&lt;/span&gt;" style="rounded=0;whiteSpace=wrap;html=1;fillColor=#fff2cc;strokeColor=#d6b656;strokeWidth=2;align=center;verticalAlign=top;fontSize=9;" vertex="1" parent="1">
          <mxGeometry x="31.45" y="1315" width="170" height="63" as="geometry" />
        </mxCell>
        <mxCell id="PvDVrDbWtF-_EP92R9GO-2" value="&lt;span style=&quot;font-size: 18px;&quot;&gt;&lt;b&gt;&amp;nbsp;add interface lists&lt;/b&gt;&lt;/span&gt;&lt;div&gt;&lt;span style=&quot;font-size: 18px;&quot;&gt;&lt;b&gt;[WAN, LAN]&lt;/b&gt;&lt;/span&gt;&lt;/div&gt;" style="rounded=0;whiteSpace=wrap;html=1;fillColor=#fff2cc;strokeColor=#d6b656;strokeWidth=2;align=center;verticalAlign=top;fontSize=9;" vertex="1" parent="1">
          <mxGeometry x="211.45" y="1315" width="180" height="63" as="geometry" />
        </mxCell>
        <mxCell id="PvDVrDbWtF-_EP92R9GO-3" value="&lt;div&gt;&lt;span style=&quot;font-size: 18px;&quot;&gt;&lt;b&gt;TBD&lt;/b&gt;&lt;/span&gt;&lt;/div&gt;" style="rounded=0;whiteSpace=wrap;html=1;fillColor=#fff2cc;strokeColor=#d6b656;strokeWidth=2;align=center;verticalAlign=top;fontSize=9;" vertex="1" parent="1">
          <mxGeometry x="340.0000000000001" y="1123" width="78.55" height="63" as="geometry" />
        </mxCell>
        <mxCell id="PvDVrDbWtF-_EP92R9GO-4" value="&lt;span style=&quot;font-size: 18px;&quot;&gt;&lt;b&gt;Wireguard&amp;nbsp;&lt;/b&gt;&lt;/span&gt;&lt;div&gt;&lt;span style=&quot;font-size: 18px;&quot;&gt;&lt;b&gt;&lt;br&gt;&lt;/b&gt;&lt;/span&gt;&lt;/div&gt;&lt;div&gt;&lt;span style=&quot;font-size: 18px;&quot;&gt;&lt;b&gt;&lt;br&gt;&lt;/b&gt;&lt;/span&gt;&lt;/div&gt;&lt;div&gt;&lt;span style=&quot;font-size: 18px;&quot;&gt;&lt;b&gt;Site 2 Site VPN&lt;/b&gt;&lt;/span&gt;&lt;/div&gt;" style="rounded=0;whiteSpace=wrap;html=1;fillColor=#ffe6cc;strokeColor=#d79b00;strokeWidth=2;align=center;verticalAlign=top;fontSize=9;" vertex="1" parent="1">
          <mxGeometry x="610" y="1030" width="270" height="186" as="geometry" />
        </mxCell>
        <mxCell id="PvDVrDbWtF-_EP92R9GO-5" value="&lt;span style=&quot;font-size: 18px;&quot;&gt;&lt;b&gt;VLAN support&lt;/b&gt;&lt;/span&gt;&lt;div&gt;&lt;span style=&quot;font-size: 18px;&quot;&gt;&lt;b&gt;&lt;br&gt;&lt;/b&gt;&lt;/span&gt;&lt;/div&gt;&lt;div&gt;&lt;span style=&quot;font-size: 18px;&quot;&gt;&lt;b&gt;&lt;br&gt;&lt;/b&gt;&lt;/span&gt;&lt;/div&gt;&lt;div&gt;&lt;span style=&quot;font-size: 18px;&quot;&gt;&lt;b&gt;1G/10G Trunk ports&lt;/b&gt;&lt;/span&gt;&lt;/div&gt;" style="rounded=0;whiteSpace=wrap;html=1;fillColor=#f5f5f5;strokeColor=#666666;strokeWidth=2;align=center;verticalAlign=top;fontSize=9;fontColor=#333333;" vertex="1" parent="1">
          <mxGeometry x="899" y="1030" width="231" height="186" as="geometry" />
        </mxCell>
        <mxCell id="PvDVrDbWtF-_EP92R9GO-7" value="&lt;span style=&quot;font-size: 18px;&quot;&gt;&lt;b&gt;HA WAN&lt;/b&gt;&lt;/span&gt;&lt;div&gt;&lt;span style=&quot;font-size: 18px;&quot;&gt;&lt;b&gt;&lt;br&gt;&lt;/b&gt;&lt;/span&gt;&lt;/div&gt;&lt;div&gt;&lt;span style=&quot;font-size: 18px;&quot;&gt;&lt;b&gt;&lt;br&gt;&lt;/b&gt;&lt;/span&gt;&lt;/div&gt;&lt;div&gt;&lt;b style=&quot;font-size: 18px; background-color: transparent; color: light-dark(rgb(0, 0, 0), rgb(255, 255, 255));&quot;&gt;High Available&lt;/b&gt;&lt;br&gt;&lt;/div&gt;&lt;div&gt;&lt;span style=&quot;font-size: 18px;&quot;&gt;&lt;b&gt;internet access&lt;/b&gt;&lt;/span&gt;&lt;/div&gt;&lt;div&gt;&lt;b style=&quot;font-size: 18px;&quot;&gt;(Multi WAN)&lt;/b&gt;&lt;span style=&quot;font-size: 18px;&quot;&gt;&lt;b&gt;&lt;br&gt;&lt;/b&gt;&lt;/span&gt;&lt;/div&gt;" style="rounded=0;whiteSpace=wrap;html=1;fillColor=#f8cecc;strokeColor=#b85450;strokeWidth=2;align=center;verticalAlign=top;fontSize=9;" vertex="1" parent="1">
          <mxGeometry x="20" y="840" width="270" height="143" as="geometry" />
        </mxCell>
        <mxCell id="PvDVrDbWtF-_EP92R9GO-8" value="&lt;span style=&quot;font-size: 18px;&quot;&gt;&lt;b&gt;PPPOE (bridge internet access)&amp;nbsp;&lt;/b&gt;&lt;/span&gt;" style="rounded=0;whiteSpace=wrap;html=1;fillColor=#dae8fc;strokeColor=#6c8ebf;strokeWidth=2;align=center;verticalAlign=top;fontSize=9;" vertex="1" parent="1">
          <mxGeometry x="20" y="1030" width="290" height="186" as="geometry" />
        </mxCell>
        <mxCell id="PvDVrDbWtF-_EP92R9GO-9" value="&lt;span style=&quot;font-size: 18px;&quot;&gt;&lt;b&gt;rename interfaces&lt;/b&gt;&lt;/span&gt;" style="rounded=0;whiteSpace=wrap;html=1;fillColor=#fff2cc;strokeColor=#d6b656;strokeWidth=2;align=center;verticalAlign=top;fontSize=9;" vertex="1" parent="1">
          <mxGeometry x="401.45" y="1315" width="170" height="63" as="geometry" />
        </mxCell>
        <mxCell id="PvDVrDbWtF-_EP92R9GO-10" value="&lt;span style=&quot;font-size: 18px;&quot;&gt;&lt;b&gt;add bridge&lt;/b&gt;&lt;/span&gt;&lt;div&gt;&lt;span style=&quot;font-size: 18px;&quot;&gt;&lt;b&gt;[LAN interfaces]&lt;/b&gt;&lt;/span&gt;&lt;/div&gt;" style="rounded=0;whiteSpace=wrap;html=1;fillColor=#fff2cc;strokeColor=#d6b656;strokeWidth=2;align=center;verticalAlign=top;fontSize=9;" vertex="1" parent="1">
          <mxGeometry x="581.45" y="1315" width="170" height="63" as="geometry" />
        </mxCell>
        <mxCell id="PvDVrDbWtF-_EP92R9GO-11" value="&lt;span style=&quot;font-size: 18px;&quot;&gt;&lt;b&gt;set bridge IP&lt;/b&gt;&lt;/span&gt;&lt;div&gt;&lt;span style=&quot;font-size: 18px;&quot;&gt;&lt;b&gt;[main IP]&lt;/b&gt;&lt;/span&gt;&lt;/div&gt;" style="rounded=0;whiteSpace=wrap;html=1;fillColor=#fff2cc;strokeColor=#d6b656;strokeWidth=2;align=center;verticalAlign=top;fontSize=9;" vertex="1" parent="1">
          <mxGeometry x="761.45" y="1315" width="150" height="63" as="geometry" />
        </mxCell>
        <mxCell id="PvDVrDbWtF-_EP92R9GO-12" value="&lt;span style=&quot;font-size: 18px;&quot;&gt;&lt;b&gt;configure DNS&lt;/b&gt;&lt;/span&gt;&lt;div&gt;&lt;span style=&quot;font-size: 18px;&quot;&gt;&lt;b&gt;[local]&lt;/b&gt;&lt;/span&gt;&lt;/div&gt;" style="rounded=0;whiteSpace=wrap;html=1;fillColor=#fff2cc;strokeColor=#d6b656;strokeWidth=2;align=center;verticalAlign=top;fontSize=9;" vertex="1" parent="1">
          <mxGeometry x="31.45" y="1390" width="140" height="63" as="geometry" />
        </mxCell>
        <mxCell id="PvDVrDbWtF-_EP92R9GO-13" value="&lt;span style=&quot;font-size: 18px;&quot;&gt;&lt;b&gt;add IP Pool&lt;/b&gt;&lt;/span&gt;&lt;div&gt;&lt;span style=&quot;font-size: 18px;&quot;&gt;&lt;b&gt;[for DHCP]&lt;/b&gt;&lt;/span&gt;&lt;/div&gt;" style="rounded=0;whiteSpace=wrap;html=1;fillColor=#fff2cc;strokeColor=#d6b656;strokeWidth=2;align=center;verticalAlign=top;fontSize=9;" vertex="1" parent="1">
          <mxGeometry x="181.45" y="1390" width="140" height="63" as="geometry" />
        </mxCell>
        <mxCell id="PvDVrDbWtF-_EP92R9GO-14" value="&lt;span style=&quot;font-size: 18px;&quot;&gt;&lt;b&gt;add DHCP server&lt;/b&gt;&lt;/span&gt;" style="rounded=0;whiteSpace=wrap;html=1;fillColor=#fff2cc;strokeColor=#d6b656;strokeWidth=2;align=center;verticalAlign=top;fontSize=9;" vertex="1" parent="1">
          <mxGeometry x="331.45" y="1390" width="140" height="63" as="geometry" />
        </mxCell>
        <mxCell id="PvDVrDbWtF-_EP92R9GO-15" value="&lt;span style=&quot;font-size: 18px;&quot;&gt;&lt;b&gt;add NAT&lt;/b&gt;&lt;/span&gt;&lt;div&gt;&lt;span style=&quot;font-size: 18px;&quot;&gt;&lt;b&gt;[WAN access]&lt;/b&gt;&lt;/span&gt;&lt;/div&gt;" style="rounded=0;whiteSpace=wrap;html=1;fillColor=#fff2cc;strokeColor=#d6b656;strokeWidth=2;align=center;verticalAlign=top;fontSize=9;" vertex="1" parent="1">
          <mxGeometry x="481.45" y="1390" width="140" height="63" as="geometry" />
        </mxCell>
        <mxCell id="PvDVrDbWtF-_EP92R9GO-16" value="&lt;span style=&quot;font-size: 18px;&quot;&gt;&lt;b&gt;add firewall&lt;/b&gt;&lt;/span&gt;&lt;div&gt;&lt;span style=&quot;font-size: 18px;&quot;&gt;&lt;b&gt;[base]&lt;/b&gt;&lt;/span&gt;&lt;/div&gt;" style="rounded=0;whiteSpace=wrap;html=1;fillColor=#fff2cc;strokeColor=#d6b656;strokeWidth=2;align=center;verticalAlign=top;fontSize=9;" vertex="1" parent="1">
          <mxGeometry x="631.45" y="1390" width="140" height="63" as="geometry" />
        </mxCell>
        <mxCell id="PvDVrDbWtF-_EP92R9GO-17" value="&lt;span style=&quot;font-size: 18px;&quot;&gt;&lt;b&gt;add mac-server&lt;/b&gt;&lt;/span&gt;&lt;div&gt;&lt;span style=&quot;font-size: 18px;&quot;&gt;&lt;b&gt;[Winbox on LAN]&lt;/b&gt;&lt;/span&gt;&lt;/div&gt;" style="rounded=0;whiteSpace=wrap;html=1;fillColor=#fff2cc;strokeColor=#d6b656;strokeWidth=2;align=center;verticalAlign=top;fontSize=9;" vertex="1" parent="1">
          <mxGeometry x="781.45" y="1390" width="160" height="63" as="geometry" />
        </mxCell>
        <mxCell id="PvDVrDbWtF-_EP92R9GO-18" value="&lt;span style=&quot;font-size: 18px;&quot;&gt;&lt;b&gt;pppoe-client&lt;/b&gt;&lt;/span&gt;" style="rounded=0;whiteSpace=wrap;html=1;fillColor=#fff2cc;strokeColor=#d6b656;strokeWidth=2;align=center;verticalAlign=top;fontSize=9;" vertex="1" parent="1">
          <mxGeometry x="40.73" y="1080" width="151.45" height="63" as="geometry" />
        </mxCell>
        <UserObject label="Source: https://help.mikrotik.com/docs/spaces/ROS/pages/328151/First+Time+Configuration" link="https://help.mikrotik.com/docs/spaces/ROS/pages/328151/First+Time+Configuration" id="PvDVrDbWtF-_EP92R9GO-19">
          <mxCell style="text;whiteSpace=wrap;fillColor=#f5f5f5;fontColor=#333333;strokeColor=#666666;" vertex="1" parent="1">
            <mxGeometry x="650" y="1560" width="500" height="30" as="geometry" />
          </mxCell>
        </UserObject>
        <UserObject label="Source: https://registry.terraform.io/providers/terraform-routeros/routeros/latest/docs" link="https://registry.terraform.io/providers/terraform-routeros/routeros/latest/docs" id="PvDVrDbWtF-_EP92R9GO-20">
          <mxCell style="text;whiteSpace=wrap;fillColor=#f5f5f5;fontColor=#333333;strokeColor=#666666;" vertex="1" parent="1">
            <mxGeometry x="700" y="1610" width="450" height="30" as="geometry" />
          </mxCell>
        </UserObject>
        <mxCell id="PvDVrDbWtF-_EP92R9GO-21" value="" style="shape=image;verticalLabelPosition=bottom;labelBackgroundColor=default;verticalAlign=top;aspect=fixed;imageAspect=0;image=data:image/png,iVBORw0KGgoAAAANSUhEUgAAAcoAAABuCAMAAACQuKOiAAAA9lBMVEX///8AAABcTuVAQLJRQeRWR+SZke7Lx/XY2Ng5OTnw8PBnZ2exsbHHx8dMO+NMTEyTk5MgICA6OrB5ecXS0uouLq5+fn4vLy/09PTp6emmpqZDQ0OZmZnk5ORxcXHe3t5UVFTR0dG7u7uJiYnFxcWpqalubm4+Pj4WFhYnJyeenp4eHh5JN+M0NDR5eXlQUFCnofAmJqzz8v1dXV3d2/lyZ+hfUeV6cOmBeOprX+dqasD29f02Nq+4uN/T0Pe+ufOKgevl5PqyrfGak+6Ohuynp9fIyOaLi8xLS7Zvb8GVldBcXLsfH6qjnO+8uPOkpNaQkM4WFqlJM97fAAANO0lEQVR4nO2d+WPaNhvHbY6WwwSSLo65AjYQCElIE9KtWbMeW9utO7q9//8/80ryoUeyJGOTYOP4+0NiLFnI+th6dDwS2gctA3LG1zX8f3g9NoQRFuulf9gZX+N/dueseToxrJ3kbz9Uub9LOwua1tN1G/8f6XpHGEHX2/7hma6jv23dVXc3GdwLlUqXH2/TzsQGKMf+YWe81rQBonhqrsb6TrK3JyqVStWD1ylnIg5KonnxPoZVwqqUXqaaCQal3cc1ZxsbT3uOD08JyukaHbY0zTy/0LQT/SK4eHCOApqIbHexsJxFV2u3R8srfTFJ627SUsnVwZtPKWYCoSTNni5GWQvMoOUenGGUnjTtFP850c/9a8deSANfvcDPhB/3ubH0UJaql5/fpZYJhPLw5ByJVLB2g5zpaS1dd1CzduiiPF2e6LrFo0Tgx6MGim5ilLq+buDIM8s60Z+bIS0Fqh78mlYmesFbF9hKfDRFTPxPffR3IkBp6PoI/TtHTVyEcj4ikU3013zGKJHJ/DElk4lQdma93mziohzZNRsfkddsheyj1+wRoZzpOnprtSsXJel9omvQ39WzRolM5k+pmMyeywPXlh5A9/10DmmzR9sE5QCfKlB6JvO3FExmz60lNfIuIgad5cCrahvGBUYSRulz8lDWQyifdwXrwqx833kmGJTXxC56WDStI0LZJv0SRFpz3CPU3gEosa1sFiixyXy/40wwKM9Q43XZx1iG/UmvdyhCiRo7+uEcv5u4w7I0UI/EACgXTRNFu1B8Yx4lQIlM5tvdmkwGpR3YSsM9GPhjsCZG6b5tEy/SEL+WWE2vV6rRTmhrp/eQvoQoUcfkn11mYuQ4ZIqj4Tg11PiZTBzNdhBcuzcxO3gcyHEwF9swNK1lGG7UQWdp4IGFxmxiDvCBZZDP+BU2JuZkuMs7yILEKLHJzMT0VxK5zZ7nJxlKZDKzMP2VRKT78gwlR4mnv9LOXSKRUdtnKBXK0mXauUuk+spJOwupSInyAEXYsi2b+rT281Ekys9vt6Dx7tXPj5bTQhGKRPmiktzJ4Mvx8atHzGshpaJRVkuVaqIZk6/lh/JRblFatmPMZoZjZ8YzZROUqGPyJnbH5NPPN+VyXlEOJxd0ilWvm5loZ22GMr6Twe83R+W8orSaOqdMDPduiDKmk8GX44dyOa8oRzxIMgKcvjZGGcPJ4Ic/jsvlOCh74cKRKnXT1BVkKhMeYTFQbuhkcPvNrVvzivJEkCnx8ogdKxZKZDJfRJnMPwHIPKI0RJmyU84UUTyUeMZEaTJ/eXgol3ON8iqLmSKKi1LpZACMZF5RiixlRlxP4qOUOhncvmLq1nyidEBWLpYt254anWYm+iKJUCKTKXAy+DcMMocoOzQn7ejYO1UilAIng69HD2GQOUR5SnMySjcnIVWEpCJRck4Gn/7ijWReUa5pTtLNSFi3bw+SocQm05v+eve7qG6NgdJZNxmB8lqccUGNJyyMDXQd5CwbBpLR+x8ryVD6a2yDUbrEKHmBZuL8Ue91e7WDnJ2knRWRvstq2QiUpdLlS9QD+VsKMinKIUVZf+R73VYZR6m9e3EpBBaJsoJRSsxkgTIdffpJZDILlCFlH6WmvRSYzOyitLrDYeMpNu1BCY9GQ3nK1xuibAxHw+7mGVTHtLqjkTAGChC26H894KllEuVo2Qym8Oumw9+i3XI1DQJGptuDqU29kKAR3J3QgfCR02nWQaenvjKYUhqRq92NLogO/W9qTZnRdMsx+0Gk87Me3/20vGy06FVO3x1u8DMIIrcGTW8qps5Mv1j28swbDq73wiX47jNnMjOIcrnQOTXZsjr3z3slNe37x0EXxysTG+9IQVw5Wp0+nyrRFSi9lTCGqzWNNh2HQhdLDaoWBLifLbwJEVn52+Cybk/YCbW6/3SOOnMmQDQz8+kNYzIzh1I4w8SuKwjeLIJh6pIlwAI3DrLey3u/SDFf8CkGuqj56ZrSOGDmuSaazPS/xY8TnCUfJ/Q4QIkzOJyEUsEL2VCsQehpFq9ae1kFJjNrKNfhe3ALHNSyAUpUvjX/w5JB2UTfMKaxyGZrUvkeWCqU/l4YHWmMOc0hRTlElYx/bEGUV25dElZbq0nKQGhKX1OTmTGUc/FdsHcSoFyD8dIJg/JEo0888coZyBMOKi8VSs9YnSqi6IGBpijtGq0OhhClfq5LVJcFmMKCvP14kEmUIT83IDpLEdzsIaiHmuz1oKRI+lNFyr5JU6F031xRjUgVjPNRlJCLzaBMIElR3t1XsofSkd+GDrxrhM9tXf4ocN8nUCcSJWly2spE6PKymjDU2BaldI33h2o1ayjVd7JQotTVKCPSjkRJ2kbSSpGJJUO53BaleJ9Hon9QxyRLKNnGa9/sdEyGmt8ZE6O0pCi7AMPJ9XplmmZT1NRXdUZwdyhUaYTamWMVytW2KEGHKKTbtweXGUIJm3Sm18rpgk6cX38lQnm2HkyZ8RQbfh3Zd8TqYln0/KF7BguHX8NEO25ft2swTl0NBcrJtijVg0/vq9lBaYFcg447YClHeeI2SwQoF3IHVpAy9D2nY7CHTHSYvzp4KGD/xN2wT4TylDwNApRnPbs7FPWm18vWsNuC3djoYs0Iyha4CxATzGx6w2whlOd+1RtGqfJEBilfgdMylLARzASAitl9JMIoT72scygXHX8cq8VdYAajO7JvFWo7lA/for8hLAHKJT3FjFJRci3+BI+LRykYuoQCzRhwVoYSvH0zJgC+ruQEj3Ic7ErDoGzDJikMuIAPILgn9d1g3cmdDKJRPhx9jf6GsAQoV5I804alV4IsStiuY1GK+9RAYi8eGUowYGRJ0yEhLMpD8GAClHV2VBVcwNYkoF0ddT9YUieDKJQPx/9ukn5YApS0QBZMVPo2eOOcEOWYcQSCKOfRGzSJHx4Zyr4wNptDb4IGkmRG2gHKAZsGDbhiA2Ki1LTfxE4GapRHN6+SbmIJ7JSPUlaEdMzNG9MGKLkFrAAlWweKFQ8lbary3kgzmg6xfQDlNetzBlByvUQawDVUY6OUOBkoUR7/lXxvkRgoqQ31asx66FJfsexKXJS0Ldnn0gHtTzJIAFByz9pTo3zturuK/fKkKB+OfolOWioBSlqBLWY9IMonhJKrizKIkmtBPzXKF/5PyoSdDKQoj24SGklPyrdSpgJllF5Uq5fubi8Cvzwhyi2MpKd0UDZso7cc+FqKGzL7jZL+pAznZCBGefzHD9GpqpUCSqujGA4H8fYdJd3t5WWpokb58LCNkfS0e5RLQYLC6PuPku72wphMHuXRzZ/RKUZr5yhV0x563lDS3V6gXx6L8ujm2+PsTrhrlDNBclAgai5QUpN596YiQvkIRtLTrlFGJQ2i5gQl3e3F98sDKB+OH8FIekqE0ttlOwHKyOWdIG5uUNLdXly/vADl0d//RSe1sZQo+5ollhsxAcrIx0QYd99R0p+UIX55Hsqjm58fdQtf5WgPX1ScEqAE0Fb20PMMaJwJo+cJJd3t5e6+4qI8LieaypJL+VZGLJ6NjxLMw8AS3MFweuooqcn8QJbK/u9LdCrxJEBJ/TPOlZcmQGnT83CmIh7KtjA2lmKSKwMog5+UeYeQ3j7+77EJUMqmnkOKj3IqPh8PJfBM55bJ8ZAzhhLBrD7hT8oIUIJnW73JSkoowVoFdtoYbr9FTmQO5ZP+pIwAJXAzVf8gTHyULfH5eCihJxUzoRzy3MsgSmQyPz7RT08IUMKHO7y9dcMIXtX4KEHZghe+EW9mhBlmAMlAL5SQ82R2UKJe5tP8PKIApXYIyuQUlJVVM1YXwEkmPkpQgoFfps34dIHIUpTMYrm1g9fAN2x2RVDIpTlDKEm/8gkkQsktnLs+M81Vcx3MTAVux9v1K08GjjPr8CuXQVwpSvVqMCzvOSlQQn9SgQTLfzZGqVrtx0eXohRvFAvlVSUFSsWSYiLf+zQBSvVyP31DlOK1IFRmON5zRSnctJzKd+ZOaWZEi5q+DhgUKKOqWL83lwSleLcKYXQFSuWyZzpGVaBEslTmaOxFSuRFINqr4fBUFF2FUjFbNqaRCpRE8v0fLrZ5K5mOvKceGGYHEZUotaFkvgz2hJ8tSm7w3BqI9thZ9+gSEOo4x5e1clde1tC1SSGLos9ViSDVwhvHzFliACW33gGg5H6DhgawK2Y2H5rGSgOlVgsUHnAdzlZ0IGbe7DjsSp5RbeQqdOnQDxnVtLCsmYe6bzoNPylPTPI1wVlGrUEzeJ6uJw6/F7FFs8EH0bS7sgDupobR2aFKBWW0rMZT7Fb4iGlaDesptlPcRhlFWSi+CpS5UYEyNypQ5kYFytyoQJkbvb4sUOZF7+/lu70UKPdM8t1eCpR7J9luLwXK/ZNkt5cC5T5KuNtLgXI/JdjtpUC5pwrv9lKg3Fvxu70UKPdY7G4vBcq9FvhJmQLlnuv280GBMi+6uz8oUOZFH9zdXgqUeRAxmQXKXOj27UGBMi+6u78sUOZF3wuUmdH/AYqlN0kel1tDAAAAAElFTkSuQmCC;" vertex="1" parent="1">
          <mxGeometry x="660" y="55.10000000000002" width="428" height="102.79" as="geometry" />
        </mxCell>
        <mxCell id="PvDVrDbWtF-_EP92R9GO-22" value="" style="shape=image;verticalLabelPosition=bottom;labelBackgroundColor=default;verticalAlign=top;aspect=fixed;imageAspect=0;image=data:image/png,iVBORw0KGgoAAAANSUhEUgAAAh0AAABdCAMAAAA2eSSQAAAAkFBMVEX///8pMjkZJS0JGiQhKzMkLjXR0tMAFiEMHCUcJy8WIisAEx/39/djaGwADhsKGiWVmJvExseoqqxYXmLLzM1LUVe+wMKGiYxyd3pDSlA2PkTX2dlQVlsAFSF+goUACxmRlJewsrTv8PCeoaPo6ekxOUDf4OFscHQAAAw/RkxWXGC2uLqBhYgAAABfZGkAABGraCSsAAANC0lEQVR4nO2daWOqOhCGWYJAgtRdq6370h57e/7/v7uIkIVMAmjRU837rQWzPoSZyYJlVVRr+WZPD6t11fuNnkfHqR96to0wmWzvXRajf0vdqZugcVZI5mb8MKKavfmUjZQPv3PvIhn9I9oeFsguCOPVvYtl9A8o+oolNk4Kdt17F83o3tq4IcRGIs9/m927dEb31AphBRspH3HbuC9Pq+400LBxElp8RfcupdE9VHRUYBn35Rm1PcDGqCyMjPvyXIrGVdk4KZga9+WJtCEqRwWW5w+N+/Ik0jsqCj6IcV+eQd2pW5uNkxAx7suja/ZGKjgqsMIX4748sqAZFU4edgOtQYId4748qsoclWDXa3UnRH+PcV8eU5vA0fW7g3vpbfu29t1jZl8eUUe9oxIulvTW1lAbREXxwSwOeiitS6Lm/kTo8NFOOwETxr17VcTo59Vy9ZHRQDImeo52qPEP96iGUROaxVo2IDosq+Pr3Bfcvn01jBrRrjTE4QPrjNdznftLjneoiNHPa+CXwXEyJYBI17YdK7nyXm9fEaMGtKw05YYxYGpq3Je4guOybaXa53/vj5vxfD7ejIA5m/Wg1/mafy173WoeUXROu6UJ7+/Pd4AeeHYtEZxdnjwtXmuVFG/e6e3B26m23d4yqUanNyipRquS4NxmuotC8cHWoamfWqZdMXYe7EZySkr3xR3oa38qxYeb6iPlrnvAfuCEiXBA7LFQtX3nk7j4dNFJLk6X5TN+EfLTtH1HicfqnP3LX2BY3Px1M/kYTD44J7+YnP7abl5p8f5qwoHdiUeC7D6X7MYt9a392K2ijw3w27zwH2rX0claB8uts975WeIv/yXmwWc1ONKJeqA+PQy6L7jc8Ohk4Tf0bVlHW/CbvDDuUz5a/djhCfacxaGMj1b+uvSVlLazDL1P6dKSMMrn0G+7+VQlThdKccVDfxTZRZ1QXMHthf5UNfMQ/a3YJUPgx69eSVF0rbMNaT94OGnlHZBpQBwChE7hdcYdaDlIhQ0vlI52BMRbUPZMR9AqNbQoCam0XrI7g3I6JBNpzqapYTisbj5ihlZPNM7B/krUc4GHyAt2cPGiMjdSl9swp6Ovqnorr6DUOjPWEV546ms5z2CXPPhrcLMCikH3Re5AyEwpKKfDG9qg9+Oe3OIWhs0iAncbrf8VdLRZP76M4d9SOnZfBZsepmM9VKyL8OIJdP+96OiyfD2UDgRSjkHWsdEXNOUGrjPefxfNjxp02CrDB7eto9Itcr90aV9BxxsbNH0FHIwOu8gu2F8zrHb+8SdgGd2JjiPLFnnnUaCYocdeHvDaYxwCPd8pDJx16FAKEU1IVhtSuZiO6JP1t79U/barnEqA+qul9vxPlbTl0fg+dGw4OPJCFTIUA6PwvgVom+SreN+P0KEX0TiFl9Kx5l5yZKlMvhYd+5KuRjvpJ9GiWhP8KB1jZoszYgsZFj04cM+T958UJeiJj/kFdHjY9d8TrxZ80FBy0RcvhhrT40I69pilTzRL3WQ6PHRyxhHC38V7I8RXKAx88kJ8YRlVKHdjiENeXD7C/33IarmQjgkzjdCOvu0KtZxKacnLkL1YnmYbiQ1Wmw5E/vQG++1+sAFWtoZ+u9dKLnaXNleWhXrwuIyOFjdQxlAoIVeBjoTrz8nXeD6ftGVf+8D1LQ7H3eSGaD+a84EAV2qs/ZjXnCbhTYULHSiacxkdnC2OpizZYs8DIbaNMOUGr/C5ko7gm+U7CgrDB+FWEPTY+IfVHXgRHZzFroejQEfweVSHZLvceB3wjbLhrJH3ksgpjWerq8N0ER2cLc7DIfksiwlgJX0xr16xOvA6OojQGVvxnRML9meLNrdmMucSOlbcy75kiYpAB9HeO2WHJg1FhrY72qa6l+RJtKlcTXw11wV0RFP2+IdCdLBIhx3GS/lRyN0X5cbIq+gICu/4AeGS8gvOSY/mpJ7MuYAOzmK3FyWxPJ6OWNthNKpqh1LoMmLk6Cxsq3E6tpwtHoqPnEQHW0QqaPZGcOAqTbVr6JBN7z5XXMnyoksO1JM59ekYc2GtMjh4Olz9vbQini1f3NI8NS/Jk5qlg7fFw0JXAHQkpbWBaMJsNVK/X6+hw5fqzKUWS3bexinNpDYdnMVuL0rniBgd3pv2xjV9WxGoX6mjBzgDvBqlo/WuhkOySu3URfHczwoGEKcr6ACaZk2fKiQvM5vlF0NVLLM2HX3eFSqfQGR0lMxFH/N0FV1FX/dEO6/YJB0jztxyJNYLdIRJWdIZFo/0SxYrJOyzUf8KOhzgdcUSAvoqtxAQOElxUg06bC9pUM4MjoGFCkVxY4f+RuqLQqsvLa4NAi2STdGBV1aPh0P+hQhH+hxnMyyIAO4Lp9EuWNDSXkEH1HL0fe0DiOZNDowrmWrRYXvcfAGuAAejQ83nWTSC7MLX2TC41CXTFB22w8c6PWDKH6CDrgoMNdHk1qvvcaW9gg4fGFUPlA7A1MltfSQFJmnhatAhCspPEqWjrJr05alaa0HfPNp12o3RIcyAQoSCdCRUv6at5wRw/fffKT4/QgcBOmSS9x20Nuu1QTrUaXKidAT6kYbOpiktpBx0/ULc5ugQ5MtRTgUdlpVlgm25BdaTbPL2R+iIgYsTziqQ1CQddrAsLTmj40XfW9s8bgOZVqn+0IdXl86N6PCQ9Jwq6aBGvftaaOIlXQ32gHTYcflOcUqHq981TAMajiqe8a2rJ9WN6LBRic8C0JH8c8EbXzNuI9wj0gHaQaIq01E6drzlbxZ5Gp/TreiwcfENWIGOpME49rnI2mPSoe+pk6rSEeV0KCdS8rivaj3qWTejozCnVZEOj3XSkcfgcehwuGWSYdlGz6p0WLQWis6P8n5C2q3HzdLh+VzfETGCUIkOO6b2ijDx/jB0kI41YRVz9dMe1enIXxygX5ZokCekfPWkapQONF233hkAtlBSQ4edzbu9sv/E+gB5ZTrGufmu2N9TFkvN1CQd4WskrDcWV6oZOmz7b+q0r7l1iYE2SlyZDnojHM+gdknJFH6DdODzXWPWfYJLb+jwSHbTjM05IHmHHKfKdLDud6HBgw4dJVO9zdER5PZOn63/4WeaDB2YdvGKrTpydDMolelg9YBGI7ZUMdCvEmmMjoD6UhF3UIfLXPqnp+OFs9LnLJTja2pQnQ5uneOuaJjOuEdYP7vTFB28o71ny584l/7Z6RAnyN44y1TdE9Xp4BJEtnjziDkKuOQg4KboeOFL1GXvVebSPzsdYiNGHttmDJxfkKkGHdy5W178xd4u+za3VDEsSaQpOsTid7jd5blLb+gQ/s3tXEPK+GUNOqwxt+ws9Pvppp3uZuhzrVs6s3MbOqw2Z5lm7SbSwS1TqUfHxhGS+T10FJdeHLkNM6r4dx06+DAKuKdPnQ3VjejgtlfkRnSBDnbwRj06CmfT/SI6is4k5/oThStRi451qD9dKdR7syfdxO5ItH2hpcpc+mJhg7wAteiYiEPHb6ZDcP3h3q9FB3+eDiBHO/92VmN0FJMbMMv07NJLxSXzMwk16OhOi/vpfzMd3DgIrIc5qR4d1lpqHq4Fqxzt2tibRUpuwyzT1KWXCxye9zRVpgM6xuEX0SE/u1vOMgUXhNakI6mO4ggPpN+vm+t2dFgH1r0nlx44N8zG4YqbX9TQkTQ+/FWXGueG/Xt08PutA2hFaG06rMHUlflAcb/aB9Nu9mZJ9MlmGJxIceZg8NkWDj1S0GHvFF9s0e/POCeUu3ofwMVJlrsH0pE7o2o68u4lajqyHBA0P8a5/gvA3aQb6xfVvzcyGopHJyIctyv09bk4eVMp7CBBQ9hV50RbBwr4rdnqriSFA2wyeeK/VXTAB8JVgnzrkcS589+5r3swzYL0oh9DY9AoTi8S9XGTVn9BTlqo/YGWf04E3t00Wbyn+fvvH1AwYpglX2UBO9V+8xb4AT4pIM53r/qXSrZefM5P2eGcRud7ifrBsPrxuXHB12be9On1TqWzjpV0lN6vUXSW7qL2lxenXTkH5Q0Vkge17656m95qUPcTnLXyu7Z1uKq3SHlf16ZDXtxs9Ds11HnjF9KxqLdF2+if1RbrY3kX0KE86NPo12lrl3d4HTo80M40+q2aLMqGD1KdDozMa+WxNNN/KJKPbk1L5pTUJwQb/VqVfCjSds/fuR9MtTYsivVHfhj9VpV8KDIMxsee/tOkHuFOHTV6MHVibWQsxFrvxnNfq0aGjX6joC+tVFUAnPNh9Fgq+c69UuARp0YPp5Lv3IMKCXA8stFDamTr3ZeiEHS0utHDqsR9EWQclefTUvude44N46g8o6q5L8ZReVZlR5JqpDrM1OgZlB5nrJTuIGSjZ5B69sXMqBipvnNf5QMMRs+g5UL6YHPdj7cYPa6K7gt0crrR82r/zfY0Ycc4KkaiZu0YIw+FLqq08dPoybRezfuHpbE3nkr/A2Kg7vDlgvUkAAAAAElFTkSuQmCC;" vertex="1" parent="1">
          <mxGeometry x="31.450000000000045" y="60" width="541" height="93" as="geometry" />
        </mxCell>
        <mxCell id="PvDVrDbWtF-_EP92R9GO-24" value="Router OS script &#xa;dynamic base configuration" style="shape=image;verticalLabelPosition=bottom;labelBackgroundColor=default;verticalAlign=top;aspect=fixed;imageAspect=0;image=https://cdn-icons-png.flaticon.com/512/1119/1119024.png;" vertex="1" parent="1">
          <mxGeometry x="1000" y="1383" width="70" height="70" as="geometry" />
        </mxCell>
        <mxCell id="PvDVrDbWtF-_EP92R9GO-25" value="Terraform&#xa;to inject base script" style="shape=image;verticalLabelPosition=bottom;labelBackgroundColor=default;verticalAlign=top;aspect=fixed;imageAspect=0;image=https://static-00.iconduck.com/assets.00/file-type-terraform-icon-1821x2048-mbxeegff.png;" vertex="1" parent="1">
          <mxGeometry x="970" y="1260" width="67" height="75.35" as="geometry" />
        </mxCell>
        <mxCell id="PvDVrDbWtF-_EP92R9GO-26" value="Terraform&#xa;to setup PPP based&#xa;internet connection" style="shape=image;verticalLabelPosition=bottom;labelBackgroundColor=default;verticalAlign=top;aspect=fixed;imageAspect=0;image=https://static-00.iconduck.com/assets.00/file-type-terraform-icon-1821x2048-mbxeegff.png;" vertex="1" parent="1">
          <mxGeometry x="211.45" y="1085.32" width="67" height="75.35" as="geometry" />
        </mxCell>
        <mxCell id="PvDVrDbWtF-_EP92R9GO-29" value="&lt;font&gt;1&lt;/font&gt;" style="ellipse;whiteSpace=wrap;html=1;fillColor=#60a917;strokeColor=none;fontColor=#ffffff;fontStyle=1;fontSize=72;" vertex="1" parent="1">
          <mxGeometry x="1060" y="1270" width="80" height="80" as="geometry" />
        </mxCell>
        <mxCell id="PvDVrDbWtF-_EP92R9GO-30" value="&lt;font&gt;2&lt;/font&gt;" style="ellipse;whiteSpace=wrap;html=1;fillColor=#60a917;strokeColor=none;fontColor=#ffffff;fontStyle=1;fontSize=72;" vertex="1" parent="1">
          <mxGeometry x="101.45000000000005" y="1130" width="80" height="80" as="geometry" />
        </mxCell>
        <mxCell id="PvDVrDbWtF-_EP92R9GO-31" value="&lt;font&gt;3&lt;/font&gt;" style="ellipse;whiteSpace=wrap;html=1;fillColor=#60a917;strokeColor=none;fontColor=#ffffff;fontStyle=1;fontSize=72;" vertex="1" parent="1">
          <mxGeometry x="505.00000000000006" y="1123" width="80" height="80" as="geometry" />
        </mxCell>
      </root>
    </mxGraphModel>
  </diagram>
</mxfile>
